PathFileType  4	(X/Y/Z) C:\Users\antoi\Documents\MyRepositories\mobilecap\ResultsAnalysis
DataRate	CameraRate	NumFrames	NumMarkers	Units	OrigDataRate	OrigDataStartFrame	OrigNumFrames
100.0	100.0	4	51	mm	100.0	204	271
Frame#	Time	r_knee			r_shank_antsup			r_ankle			r_calc			r_5meta			r_toe			L_knee			L_shank_antsup			L_ankle			L_calc			L_5meta			L_toe			r_sh2			r_sh3			r_sh4			L_sh2			L_sh3			r_thigh1			r_thigh2			r_thigh3			r_thigh4			r_thigh5			L_thigh1			L_thigh2			L_thigh3			L_thigh4			r.ASIS			r.PSIS			L.ASIS			L.PSIS			C7			R_Shoulder			L_Shoulder			R_Sternum			L_Sternum			R_humerus			R_elbow_med			R_elbow_lat			R_forearm			R_wrist_radius			R_wrist_ulna			L_humerus			L_elbow_med			L_elbow_lat			L_forearm			L_wrist_radius			L_wrist_ulna			R_HJC			L_HJC			R_HJC_reg			L_HJC_reg			
		X1	Y1	Z1	X2	Y2	Z2	X3	Y3	Z3	X4	Y4	Z4	X5	Y5	Z5	X6	Y6	Z6	X7	Y7	Z7	X8	Y8	Z8	X9	Y9	Z9	X10	Y10	Z10	X11	Y11	Z11	X12	Y12	Z12	X13	Y13	Z13	X14	Y14	Z14	X15	Y15	Z15	X16	Y16	Z16	X17	Y17	Z17	X18	Y18	Z18	X19	Y19	Z19	X20	Y20	Z20	X21	Y21	Z21	X22	Y22	Z22	X23	Y23	Z23	X24	Y24	Z24	X25	Y25	Z25	X26	Y26	Z26	X27	Y27	Z27	X28	Y28	Z28	X29	Y29	Z29	X30	Y30	Z30	X31	Y31	Z31	X32	Y32	Z32	X33	Y33	Z33	X34	Y34	Z34	X35	Y35	Z35	X36	Y36	Z36	X37	Y37	Z37	X38	Y38	Z38	X39	Y39	Z39	X40	Y40	Z40	X41	Y41	Z41	X42	Y42	Z42	X43	Y43	Z43	X44	Y44	Z44	X45	Y45	Z45	X46	Y46	Z46	X47	Y47	Z47	X48	Y48	Z48	X49	Y49	Z49	X50	Y50	Z50	X51	Y51	Z51	

204	2.03000000	-101.39175	424.09465	-397.82652	-87.50681	325.13032	-397.12757	-327.32634	101.22477	-408.03717	-398.96711	69.75177	-459.52844	-226.14599	40.94387	-358.82667	-185.08581	67.58199	-409.76094	-72.97552	422.22155	-738.14944	-57.53924	323.37422	-726.07099	-304.54416	102.02608	-733.20318	-387.16989	59.28809	-681.45971	-222.01081	43.17261	-789.36432	-165.14256	61.32610	-738.04023	-157.92085	234.34244	-400.95013	-143.44684	364.93342	-365.34534	-216.98469	280.25972	-360.61681	-114.81317	381.22203	-765.23161	-189.90317	285.70255	-775.13842	-284.38995	625.96758	-387.64712	-191.67357	568.97717	-397.51662	-201.71442	506.08277	-369.15692	-345.28839	530.68187	-385.12222	-243.82336	473.23336	-391.61996	-207.93783	636.25870	-737.58215	-95.35194	556.57335	-714.74464	-260.23054	555.13574	-789.07258	-155.24163	477.38804	-759.74584	-295.44420	704.23460	-439.79112	-467.98780	793.30388	-534.43789	-259.90555	714.03501	-685.91130	-450.97772	801.42739	-628.74039	-248.63072	1194.69112	-532.10032	-176.50276	1202.05719	-419.65792	-162.29981	1206.41679	-625.99151	-130.25807	1113.34253	-507.93659	-126.91682	1112.64431	-548.01556	-101.56868	1235.72001	-385.87729	107.63645	1226.07443	-366.88128	86.91384	1255.97484	-304.94240	55.61482	1336.13175	-343.61997	23.72798	1438.17061	-463.85393	60.41800	1462.86905	-439.98459	-85.79490	1243.35662	-669.51642	111.01977	1239.43434	-718.61409	70.34752	1297.41974	-765.47902	52.42069	1349.01156	-714.14317	39.25327	1440.29436	-578.21447	80.10024	1465.19282	-598.50612	-392.70357	643.45527	-478.22233	-365.73777	653.62797	-665.58042	-379.71011	647.60573	-495.35945	-350.66299	661.47801	-656.42542	
205	2.04000000	-102.32559	426.40051	-397.35581	-88.26795	327.33762	-396.62683	-326.95247	101.86620	-407.64082	-398.62525	70.84636	-459.27047	-226.00887	40.37504	-359.30804	-184.89840	67.42437	-409.58449	-73.43564	424.60606	-737.79629	-58.70471	325.54033	-725.59169	-304.44551	102.23224	-733.91022	-387.30700	59.65823	-681.77427	-221.89530	42.89527	-789.15981	-165.11391	61.36361	-738.03684	-157.92107	235.98281	-400.38123	-144.44136	366.71223	-364.87133	-217.75396	281.27511	-360.98107	-116.23605	382.97982	-764.88607	-190.77789	287.10128	-774.91477	-279.73574	633.69494	-387.68453	-188.57448	574.32979	-396.93334	-200.66560	511.41396	-369.34488	-343.37468	540.73842	-386.06900	-243.61024	480.06562	-392.43845	-201.37112	643.56799	-736.95618	-91.79953	559.79494	-713.81000	-256.29843	564.22310	-788.57481	-153.96461	482.92717	-759.63985	-291.06879	716.90456	-440.11443	-462.93537	805.80445	-535.34797	-253.65089	726.69865	-684.39761	-445.04698	814.21815	-629.51891	-251.03739	1209.86007	-532.17432	-180.63986	1221.48419	-421.27677	-167.88561	1226.26476	-625.06833	-129.13141	1132.39948	-506.72165	-126.16325	1132.19399	-548.45766	-110.65071	1260.00251	-388.83072	97.77844	1265.91056	-364.41788	73.51783	1296.01761	-303.53591	40.23020	1374.40558	-344.03052	8.94912	1474.91928	-465.72887	44.78530	1500.76243	-441.91935	-96.23210	1268.39140	-665.31537	99.19491	1280.68962	-718.57721	53.46534	1336.64678	-762.77421	35.31192	1387.58195	-710.56793	24.81295	1478.74085	-573.63845	63.68327	1505.25670	-595.33437	-388.07817	656.04315	-478.62902	-359.53670	666.34951	-665.74660	-374.63311	660.36486	-496.31627	-344.28662	674.63756	-656.07026	
206	2.05000000	-103.37605	429.65386	-396.99279	-89.22069	329.89437	-396.35020	-326.55123	102.57026	-407.28910	-398.21074	72.23339	-458.91863	-225.80688	39.56133	-359.98960	-184.69763	67.29237	-409.35755	-74.63026	427.38654	-737.37121	-60.27204	328.05980	-725.57209	-304.33722	102.42624	-734.83190	-387.42937	60.18817	-682.49537	-221.67710	42.37371	-788.69340	-165.07619	61.38442	-738.15525	-157.87760	238.14698	-399.45328	-145.74305	368.96752	-364.33118	-218.52415	282.55014	-361.07725	-118.19373	385.19196	-764.95400	-192.00586	288.86776	-775.08522	-274.49083	642.73428	-387.82958	-185.23721	580.40333	-396.71311	-199.32161	517.53767	-369.71245	-341.12908	551.93365	-386.69319	-243.17205	487.72646	-393.14633	-194.90414	651.34699	-736.18894	-88.64730	563.38325	-712.83606	-252.49405	574.00722	-787.93420	-153.15742	489.05240	-759.42882	-286.40148	730.54440	-440.35629	-457.71614	819.01858	-536.24751	-247.37503	740.41593	-683.41219	-439.03539	827.64855	-630.08090	-252.90919	1226.13395	-531.87932	-185.12826	1241.56051	-422.34887	-172.95152	1246.06054	-623.28488	-128.39526	1151.78871	-505.33130	-125.14084	1153.45400	-548.46847	-120.22016	1284.23325	-391.26682	86.53247	1304.15362	-361.43561	58.65884	1334.61565	-302.35023	24.12999	1411.32864	-344.69310	-5.48472	1510.77166	-467.86290	29.24130	1537.50153	-443.57239	-106.51062	1292.67991	-661.04269	86.19951	1320.20664	-718.36163	36.41617	1374.37128	-759.53738	18.29033	1424.69043	-706.10204	10.64958	1516.36976	-569.04374	47.84064	1544.24078	-591.87384	-383.00906	669.43626	-479.06215	-353.18016	679.92371	-665.96945	-369.36349	673.89287	-497.24589	-337.73777	688.50233	-656.07171	
207	2.06000000	-104.76991	433.38009	-396.72709	-90.45638	333.07722	-396.02588	-326.06091	103.51397	-406.90546	-397.63367	74.03698	-458.57532	-225.60487	39.01534	-360.22633	-184.39641	67.19809	-408.99108	-76.52492	430.69603	-736.85541	-62.28453	331.24305	-725.39373	-304.19410	102.78866	-735.98200	-387.42273	61.10360	-683.45630	-221.37285	41.96680	-788.56338	-164.90918	61.43253	-738.44131	-157.94164	240.75380	-398.55481	-147.26646	371.64572	-363.62147	-219.31858	284.20949	-360.76506	-120.69133	387.96328	-765.14878	-193.52875	291.15140	-775.98785	-268.89522	652.79410	-387.92578	-181.69279	587.14503	-396.65749	-197.90142	524.67621	-369.81264	-338.50002	564.09948	-387.04652	-242.60264	496.38587	-393.32375	-188.53514	659.57074	-735.25007	-85.82518	567.52335	-712.01399	-248.77995	584.63488	-787.35683	-152.90117	495.85808	-759.18206	-281.42305	745.00987	-440.75497	-452.47556	832.86911	-536.83505	-240.95798	755.14160	-682.58574	-433.05239	841.68774	-630.49607	-255.18889	1243.31493	-531.33892	-190.07321	1262.31487	-423.15369	-177.65315	1265.71161	-620.11829	-128.38238	1171.71037	-504.75593	-125.06158	1175.36217	-547.84842	-129.84503	1308.38858	-393.50621	74.47286	1340.75514	-358.26756	42.85520	1371.65293	-301.31343	7.83713	1446.88254	-345.89443	-19.16246	1546.02735	-469.72701	14.26506	1573.26938	-444.33531	-116.61071	1316.64983	-657.64100	72.78781	1357.95136	-717.25512	19.68235	1410.41202	-755.48064	1.89389	1460.42757	-701.15884	-3.57301	1553.04142	-564.92725	32.62782	1581.98956	-588.52764	-377.52234	683.49505	-479.50141	-346.64855	694.33555	-666.21868	-363.76778	688.31417	-498.21523	-331.01852	703.18365	-656.13573	
